<svg width="388" height="220" viewBox="0 0 388 220" fill="none" xmlns="http://www.w3.org/2000/svg">
<path d="M115.312 128.156L118.125 140.812C108.375 141.938 101.438 142.688 97.3125 143.062C97.6875 151.688 98.1562 162.562 98.7188 175.688C99.4688 188.812 99.9375 199.594 100.125 208.031C98.4375 213.844 95.25 216.75 90.5625 216.75C87.1875 216.75 83.9062 215.344 80.7188 212.531C77.5312 209.719 75.5625 206.344 74.8125 202.406C75 196.594 75.6562 177.469 76.7812 145.031C70.7812 145.406 66 145.594 62.4375 145.594C56.8125 145.594 48.0938 145.312 36.2812 144.75C24.6562 144 16.125 143.625 10.6875 143.625C8.0625 143.625 4.5 143.812 0 144.188C0.375 139.688 0.5625 136.594 0.5625 134.906C0.5625 133.781 0.46875 132 0.28125 129.562C0.28125 126.938 0.28125 124.969 0.28125 123.656C31.5938 70.9688 56.9062 31.875 76.2188 6.375C82.0312 6.375 90 7.59375 100.125 10.0312C99.75 18.8438 99.1875 37.9688 98.4375 67.4062C97.875 96.6562 97.3125 116.438 96.75 126.75C105 127.125 111.188 127.594 115.312 128.156ZM20.8125 124.5L77.3438 126.188C77.9062 115.5 78.4688 99.6562 79.0312 78.6562C79.5938 57.6562 80.0625 41.8125 80.4375 31.125C72.75 39 61.5938 55.5 46.9688 80.625C32.5312 105.562 23.8125 120.188 20.8125 124.5Z" fill="black"/>
<path d="M135.281 116.344C135.469 75.8438 140.719 46.6875 151.031 28.875C161.344 10.875 177 1.3125 198 0.1875C207.188 0.1875 215.344 2.71875 222.469 7.78125C229.594 12.8438 235.219 19.3125 239.344 27.1875C243.656 34.875 247.219 44.1562 250.031 55.0312C252.844 65.7188 254.719 75.9375 255.656 85.6875C256.781 95.25 257.531 105.469 257.906 116.344C257.906 131.156 255.656 146.344 251.156 161.906C246.844 177.281 240.094 190.781 230.906 202.406C221.906 213.844 211.781 219.562 200.531 219.562C157.031 219.562 135.281 185.156 135.281 116.344ZM194.062 21.8438C189.562 22.7812 185.531 24.2812 181.969 26.3438C178.406 28.4062 175.406 30.75 172.969 33.375C170.719 36 168.75 39.4688 167.062 43.7812C165.375 48.0938 164.062 52.125 163.125 55.875C162.375 59.4375 161.625 64.125 160.875 69.9375C160.312 75.75 159.938 80.8125 159.75 85.125C159.562 89.25 159.281 94.7812 158.906 101.719C158.719 108.469 158.438 114 158.062 118.312C158.062 126.938 158.531 135.188 159.469 143.062C160.406 150.75 162.094 158.812 164.531 167.25C167.156 175.688 171.188 182.531 176.625 187.781C182.062 193.031 188.625 196.031 196.312 196.781C207.938 196.781 217.5 188.719 225 172.594C232.688 156.469 236.531 140.156 236.531 123.656C236.531 56.5312 222.375 22.5938 194.062 21.8438Z" fill="black"/>
<path d="M384.75 128.156L387.562 140.812C377.812 141.938 370.875 142.688 366.75 143.062C367.125 151.688 367.594 162.562 368.156 175.688C368.906 188.812 369.375 199.594 369.562 208.031C367.875 213.844 364.688 216.75 360 216.75C356.625 216.75 353.344 215.344 350.156 212.531C346.969 209.719 345 206.344 344.25 202.406C344.438 196.594 345.094 177.469 346.219 145.031C340.219 145.406 335.438 145.594 331.875 145.594C326.25 145.594 317.531 145.312 305.719 144.75C294.094 144 285.562 143.625 280.125 143.625C277.5 143.625 273.938 143.812 269.438 144.188C269.812 139.688 270 136.594 270 134.906C270 133.781 269.906 132 269.719 129.562C269.719 126.938 269.719 124.969 269.719 123.656C301.031 70.9688 326.344 31.875 345.656 6.375C351.469 6.375 359.438 7.59375 369.562 10.0312C369.188 18.8438 368.625 37.9688 367.875 67.4062C367.312 96.6562 366.75 116.438 366.188 126.75C374.438 127.125 380.625 127.594 384.75 128.156ZM290.25 124.5L346.781 126.188C347.344 115.5 347.906 99.6562 348.469 78.6562C349.031 57.6562 349.5 41.8125 349.875 31.125C342.188 39 331.031 55.5 316.406 80.625C301.969 105.562 293.25 120.188 290.25 124.5Z" fill="black"/>
</svg>
