<svg width="467" height="82" viewBox="0 0 467 82" fill="none" xmlns="http://www.w3.org/2000/svg">
<path d="M38.366 60.2126L38.1272 57.2019C35.5801 57.8357 33.5105 58.1527 31.9186 58.1527C30.2736 58.1527 28.8674 57.5188 27.6999 56.2512C26.5856 54.9836 25.71 53.399 25.0732 51.4976C24.4364 49.5961 23.6935 47.4834 22.8445 45.1594C21.9954 42.7826 21.1199 40.5378 20.2178 38.4251C19.3157 36.3124 17.936 34.4109 16.0787 32.7208C14.2214 31.0306 12.0192 29.895 9.4721 29.314C12.3376 28.6274 14.7521 27.2805 16.7155 25.2734C18.6789 23.2663 20.1647 21.0744 21.1729 18.6976C22.1812 16.268 23.1098 13.9176 23.9588 11.6464C24.8079 9.32238 25.8692 7.39453 27.1427 5.8628C28.4163 4.33108 29.9817 3.56522 31.839 3.56522C32.3166 3.56522 34.2004 3.82931 37.4904 4.35749L38.2864 1.18841C33.9881 0.396135 30.9369 0 29.1327 0C26.7448 0 24.6752 0.845088 22.9241 2.53527C21.226 4.17263 19.8463 6.17971 18.785 8.55652C17.7237 10.8805 16.6624 13.2309 15.6011 15.6077C14.5929 17.9845 13.2663 20.018 11.6212 21.7082C10.0293 23.3456 8.09241 24.1907 5.81062 24.2435C5.75755 22.2892 5.59836 18.5655 5.33303 13.0725C5.06771 7.52657 4.90851 3.75008 4.85545 1.743L1.27356 0.950725C1.11437 3.59163 0.875573 13.3101 0.557182 30.1063C0.238792 46.8496 0.053065 55.7758 0 56.885C0.21226 57.9942 0.74291 58.9449 1.59195 59.7372C2.49406 60.5295 3.42269 60.9256 4.37786 60.9256C5.75755 60.9256 6.68619 60.1069 7.16378 58.4696L6.3678 35.1768C8.43734 35.1768 10.215 35.837 11.7008 37.1575C13.1867 38.4251 14.301 40.0361 15.0439 41.9903C15.8399 43.9446 16.6624 46.0573 17.5114 48.3285C18.4136 50.5997 19.2891 52.7124 20.1382 54.6667C21.0403 56.6209 22.3404 58.2319 24.0384 59.4995C25.7896 60.82 27.8857 61.4802 30.3266 61.4802C32.8738 61.4802 35.5536 61.0576 38.366 60.2126Z" fill="white"/>
<path fill-rule="evenodd" clip-rule="evenodd" d="M47.0421 18.0638L42.5847 17.2715L41.6295 78.0387C41.8418 79.1478 42.3724 80.0721 43.2214 80.8116C44.1236 81.6039 45.0522 82 46.0074 82C47.387 82 48.3157 81.1813 48.7933 79.544C48.6341 75.0544 48.4483 68.1881 48.2361 58.9449C50.8363 60.4238 53.5426 61.1633 56.355 61.1633C59.3267 61.1633 61.8473 60.4238 63.9168 58.9449C66.0394 57.4132 67.6048 55.4061 68.613 52.9237C69.6213 50.3884 70.3111 47.9324 70.6826 45.5556C71.1071 43.1259 71.3194 40.5907 71.3194 37.9498C71.3194 32.7208 69.9662 28.0464 67.2599 23.9266C64.5536 19.8068 60.786 17.7469 55.957 17.7469C52.9854 17.7469 50.0403 18.6712 47.1217 20.5198C47.0687 19.9916 47.0421 19.1729 47.0421 18.0638ZM47.9973 51.2599L47.7585 25.6696C48.0769 24.7188 49.0586 23.9794 50.7036 23.4512C52.4017 22.8702 54.2324 22.5797 56.1958 22.5797C62.2983 22.5797 65.3495 27.0692 65.3495 36.0483C65.3495 38.161 65.2169 40.1681 64.9516 42.0696C64.7393 43.971 64.3148 46.0309 63.678 48.2493C63.0943 50.4148 62.0595 52.1578 60.5737 53.4783C59.1409 54.7987 57.3898 55.4589 55.3203 55.4589C53.7283 55.4589 52.269 55.0892 50.9424 54.3498C49.6158 53.5575 48.6341 52.5275 47.9973 51.2599Z" fill="white"/>
<path fill-rule="evenodd" clip-rule="evenodd" d="M78.4035 35.0184C77.979 37.6064 77.7668 39.9568 77.7668 42.0696C77.7668 47.1929 79.0934 51.524 81.7466 55.0628C84.3999 58.5488 88.1675 60.6087 93.0495 61.2425C95.7027 61.0312 98.0111 60.1862 99.9745 58.7072C101.991 57.1755 103.53 55.2741 104.591 53.0029C105.652 50.7317 106.422 48.4341 106.899 46.1101C107.43 43.7333 107.695 41.3565 107.695 38.9797C107.695 33.381 106.157 28.3105 103.079 23.7681C100.001 19.1729 95.915 16.8754 90.8207 16.8754C88.4328 16.8754 86.3368 17.8261 84.5325 19.7275C82.7283 21.629 81.3752 24.0058 80.4731 26.858C79.571 29.7101 78.8811 32.4303 78.4035 35.0184ZM86.6021 26.0657C87.8756 22.8966 89.4411 21.2064 91.2983 20.9952C94.8006 21.4177 97.5335 23.2399 99.4969 26.4618C101.46 29.6837 102.442 33.4602 102.442 37.7913C102.442 39.2702 102.23 40.9604 101.805 42.8618C101.434 44.7633 100.85 46.6647 100.054 48.5662C99.3111 50.4148 98.2764 51.9729 96.9498 53.2406C95.6231 54.5082 94.1373 55.142 92.4923 55.142C90.2105 55.142 88.141 53.9008 86.2837 51.4184C84.4795 48.8831 83.5774 46.1366 83.5774 43.1787C83.5774 40.9076 83.7631 38.2931 84.1346 35.3353C84.506 32.3246 85.3285 29.2348 86.6021 26.0657Z" fill="white"/>
<path d="M110.879 59.1034L114.302 60.9256C115.31 59.1826 117.194 56.3833 119.953 52.5275C122.766 48.619 124.623 45.9253 125.525 44.4464C129.611 50.2564 132.132 54.7459 133.087 57.915C134.042 59.658 135.422 60.5295 137.226 60.5295C139.03 60.5295 139.932 59.5259 139.932 57.5188C137.969 53.5575 134.175 47.6683 128.55 39.8512C129.081 39.0589 130.46 36.7878 132.689 33.0377C134.918 29.2876 136.749 26.5411 138.181 24.7981C138.553 24.0586 138.738 23.2928 138.738 22.5005C138.738 21.0744 137.783 19.8332 135.873 18.7768C134.281 20.0444 132.848 21.5233 131.575 23.2135C130.354 24.9037 129.081 26.9108 127.754 29.2348C126.48 31.5588 125.446 33.2754 124.65 34.3845C119.98 27.7823 116.663 22.4213 114.7 18.3014H111.198C115.125 28.02 118.627 34.9655 121.705 39.1382C115.867 49.0151 112.259 55.6702 110.879 59.1034Z" fill="white"/>
<path fill-rule="evenodd" clip-rule="evenodd" d="M144.39 20.6783L145.982 24.7188C149.325 22.2364 152.323 20.9952 154.976 20.9952C159.487 20.9952 161.954 24.085 162.379 30.2647C162.22 30.2647 161.981 30.2383 161.663 30.1855C161.397 30.1327 161.158 30.1063 160.946 30.1063C160.734 30.0535 160.522 30.0271 160.309 30.0271C155.427 30.0271 151.05 32.0077 147.176 35.9691C143.355 39.9304 141.445 44.3671 141.445 49.2792C141.445 52.1842 142.48 54.6667 144.549 56.7266C146.672 58.7337 149.139 59.7372 151.952 59.7372C155.666 59.7372 159.168 58.1527 162.458 54.9836C162.405 55.142 162.379 55.4061 162.379 55.7758C162.379 56.9378 162.777 57.9942 163.573 58.9449C164.369 59.8957 165.244 60.371 166.2 60.371C167.42 60.371 168.243 59.5523 168.667 57.915C168.667 55.8551 168.773 52.7652 168.986 48.6454C169.251 44.5256 169.383 41.4093 169.383 39.2966C169.383 23.8738 164.899 16.1623 155.932 16.1623C153.862 16.1623 151.766 16.5849 149.643 17.43C147.521 18.2222 145.77 19.305 144.39 20.6783ZM162.777 41.1188C162.777 43.0203 162.724 45.8196 162.618 49.5169C158.107 52.6332 154.684 54.1913 152.35 54.1913C150.864 54.1913 149.59 53.6895 148.529 52.686C147.521 51.6824 147.017 50.3356 147.017 48.6454C147.017 44.7369 148.555 41.4093 151.633 38.6628C154.764 35.9163 158.213 34.5166 161.981 34.4638H162.618C162.724 37.3159 162.777 39.5343 162.777 41.1188Z" fill="white"/>
<path d="M245.56 64.7199L251.609 64.1653C250.813 60.2567 249.646 54.3675 248.107 46.4976C246.621 38.6278 245.215 31.603 243.888 25.4232C242.615 19.2435 241.288 13.4864 239.908 8.15174C235.398 7.7292 232.718 7.49152 231.869 7.4387C231.02 9.65706 229.534 14.8596 227.412 23.0464C225.342 31.2332 223.564 37.1488 222.078 40.7933C221.707 39.7897 220.805 36.4886 219.372 30.8899C217.939 25.2912 216.507 20.1678 215.074 15.5199C213.694 10.8191 212.633 8.41583 211.89 8.3102C208.494 7.88765 206.53 7.67638 206 7.67638C205.416 7.67638 204.647 7.7292 203.691 7.83484C203.161 14.5955 201.436 24.1556 198.518 36.515C195.599 48.8745 193.768 57.9327 193.025 63.6899L197.96 64.1653C204.434 41.5591 208.149 25.9778 209.104 17.4213C209.635 19.8509 211.227 25.4232 213.88 34.1382C216.533 42.8004 217.886 47.8973 217.939 49.429C218.417 49.429 219.505 49.5083 221.203 49.6667C222.901 49.8252 224.121 49.9044 224.864 49.9044H225.422C225.687 49.8516 225.873 49.8252 225.979 49.8252C226.775 47.6068 228.207 42.774 230.277 35.3266C232.4 27.8265 234.337 22.0165 236.088 17.8967C239.484 30.8899 242.641 46.4976 245.56 64.7199Z" fill="white"/>
<path fill-rule="evenodd" clip-rule="evenodd" d="M255.509 40.2387C255.085 42.8268 254.873 45.1772 254.873 47.2899C254.873 52.4133 256.199 56.7443 258.853 60.2831C261.506 63.7691 265.273 65.829 270.155 66.4629C272.809 66.2516 275.117 65.4065 277.08 63.9276C279.097 62.3959 280.636 60.4944 281.697 58.2232C282.758 55.9521 283.528 53.6545 284.005 51.3305C284.536 48.9537 284.801 46.5769 284.801 44.2001C284.801 38.6013 283.262 33.5308 280.185 28.9885C277.107 24.3933 273.021 22.0957 267.927 22.0957C265.539 22.0957 263.443 23.0464 261.638 24.9479C259.834 26.8493 258.481 29.2261 257.579 32.0783C256.677 34.9305 255.987 37.6506 255.509 40.2387ZM263.708 31.286C264.982 28.117 266.547 26.4268 268.404 26.2155C271.907 26.6381 274.639 28.4603 276.603 31.6822C278.566 34.9041 279.548 38.6806 279.548 43.0116C279.548 44.4906 279.336 46.1807 278.911 48.0822C278.54 49.9836 277.956 51.8851 277.16 53.7865C276.417 55.6352 275.382 57.1933 274.056 58.4609C272.729 59.7286 271.243 60.3624 269.598 60.3624C267.316 60.3624 265.247 59.1211 263.39 56.6387C261.585 54.1034 260.683 51.3569 260.683 48.3991C260.683 46.1279 260.869 43.5134 261.24 40.5556C261.612 37.545 262.434 34.4551 263.708 31.286Z" fill="white"/>
<path d="M283.846 24.3141L284.563 27.8001L300.004 28.5131C299.208 37.3337 298.439 48.2406 297.696 61.2339C297.908 62.2902 298.439 63.1881 299.288 63.9276C300.137 64.667 301.013 65.0368 301.915 65.0368C303.294 65.0368 304.223 64.2709 304.701 62.7392C304.541 59.2532 304.435 53.7337 304.382 46.1807C304.382 38.5749 304.25 32.7914 303.984 28.83L318.869 29.543C320.992 29.3318 322.053 28.4339 322.053 26.8493C322.053 25.8458 321.602 24.8951 320.7 23.9972C319.798 23.0992 318.71 22.6239 317.436 22.5711C302.154 23.3105 290.957 23.8915 283.846 24.3141Z" fill="white"/>
<path fill-rule="evenodd" clip-rule="evenodd" d="M329.137 24.7894L325.555 23.9972C325.396 26.6909 325.316 29.5166 325.316 32.4744V36.4358C325.37 38.0203 325.396 39.7897 325.396 41.744C325.449 43.6983 325.502 45.7318 325.555 47.8445C325.608 49.9572 325.635 51.9643 325.635 53.8658C325.688 55.7672 325.714 57.5102 325.714 59.0947C325.767 60.6793 325.794 61.8941 325.794 62.7392C325.794 63.1089 326.165 63.4522 326.908 63.7691C327.704 64.0332 328.686 64.2709 329.853 64.4822C331.021 64.6935 332.321 64.8519 333.754 64.9575C335.187 65.116 336.54 65.1952 337.813 65.1952C339.936 65.1952 341.873 64.8783 343.624 64.2445C345.428 63.6635 346.967 62.8448 348.241 61.7885C349.567 60.6793 350.575 59.3588 351.265 57.8271C352.008 56.2954 352.38 54.6052 352.38 52.7566C352.38 50.8551 351.982 49.0065 351.186 47.2107C350.39 45.362 349.302 43.7247 347.922 42.2986C346.542 40.8725 344.871 39.7369 342.908 38.8918C340.944 37.9939 338.821 37.545 336.54 37.545C334.629 37.545 332.613 37.8619 330.49 38.4957C330.172 35.5907 329.88 33.0026 329.615 30.7315C329.402 28.4603 329.243 26.4796 329.137 24.7894ZM330.49 59.3324L331.207 43.4078C332.056 43.3021 332.825 43.2229 333.515 43.1701C334.205 43.0645 334.842 43.0116 335.425 43.0116C337.176 43.0116 338.742 43.2493 340.122 43.7247C341.501 44.1472 342.669 44.7546 343.624 45.5469C344.579 46.3392 345.295 47.2635 345.773 48.3199C346.251 49.3234 346.489 50.4062 346.489 51.5682C346.489 52.7302 346.251 53.8393 345.773 54.8957C345.295 55.9521 344.632 56.9028 343.783 57.7479C342.934 58.5401 341.873 59.2004 340.599 59.7286C339.379 60.2039 338.026 60.4416 336.54 60.4416C334.629 60.4416 332.613 60.0719 330.49 59.3324Z" fill="white"/>
<path d="M359.623 24.5517L356.041 23.7595C355.935 25.0271 355.829 26.7437 355.723 28.9092C355.67 31.022 355.617 33.3195 355.563 35.802C355.51 38.2844 355.457 40.8461 355.404 43.487C355.351 46.1279 355.298 48.6104 355.245 50.9344C355.192 53.2583 355.139 55.3182 355.086 57.1141C355.086 58.9099 355.059 60.2039 355.006 60.9962C355.219 62.1054 355.749 63.0561 356.598 63.8484C357.5 64.5878 358.429 64.9575 359.384 64.9575C360.764 64.9575 361.692 64.1653 362.17 62.5807C361.692 54.0242 361.241 46.6033 360.817 40.3179C360.392 33.9798 359.994 28.7244 359.623 24.5517Z" fill="white"/>
<path d="M358.827 67.8889L360.101 71.2957C363.284 70.7147 365.991 69.4999 368.219 67.6513C370.501 65.8554 372.173 63.822 373.234 61.5508C374.349 59.2268 375.198 56.4274 375.781 53.1527C376.365 49.8252 376.683 46.8674 376.736 44.2793C376.843 41.6384 376.949 38.6013 377.055 35.1682C377.161 31.735 377.294 29.1469 377.453 27.4039C378.355 27.2983 379.894 27.2191 382.069 27.1662C384.245 27.1134 386.447 26.9021 388.676 26.5324C388.729 28.4339 388.756 31.286 388.756 35.0889C388.756 37.1488 388.729 40.2123 388.676 44.2793V53.3904C388.676 57.4574 388.703 60.5208 388.756 62.5807C388.968 63.6371 389.499 64.535 390.348 65.2745C391.197 66.0139 392.072 66.3836 392.974 66.3836C394.301 66.3836 395.23 65.5914 395.76 64.0068C395.336 57.6158 395.07 43.6983 394.964 22.2542C394.168 22.307 390.825 22.3334 384.935 22.3334C377.453 22.3334 373.34 22.7295 372.597 23.5218C372.014 24.1556 371.722 26.0835 371.722 29.3054C371.722 31.5765 371.695 33.3988 371.642 34.772C371.642 36.0925 371.563 38.0996 371.403 40.7933C371.244 43.487 371.005 45.7582 370.687 47.6068C370.422 49.4026 369.971 51.5154 369.334 53.945C368.697 56.3746 367.928 58.4081 367.026 60.0455C366.123 61.63 364.983 63.1617 363.603 64.6406C362.17 66.1195 360.578 67.2023 358.827 67.8889Z" fill="white"/>
<path fill-rule="evenodd" clip-rule="evenodd" d="M424.654 62.8184C429.271 61.7621 432.747 60.8113 435.081 59.9662L434.285 56.4802C434.179 56.4802 433.038 56.6651 430.863 57.0348C428.74 57.4046 426.299 57.7743 423.54 58.144C420.78 58.4609 418.446 58.6194 416.535 58.6194C414.943 58.6194 413.564 58.3289 412.396 57.7479C411.229 57.1669 410.3 56.4538 409.61 55.6087C408.973 54.7108 408.443 53.6017 408.018 52.2812C407.647 50.9079 407.381 49.6403 407.222 48.4783C407.116 47.3163 407.037 45.9695 406.983 44.4377C407.779 44.2793 409.212 44.0416 411.282 43.7247C413.351 43.4078 415.129 43.1173 416.615 42.8532C418.101 42.5891 419.799 42.1666 421.709 41.5856C423.672 41.0046 425.264 40.3707 426.485 39.6841C427.758 38.9447 428.82 37.9675 429.669 36.7527C430.571 35.5379 431.022 34.1382 431.022 32.5537C431.022 29.6487 429.934 27.2983 427.758 25.5025C425.583 23.6538 423.062 22.7295 420.197 22.7295C408.204 22.7295 402.208 29.3318 402.208 42.5363C402.208 44.7546 402.393 47.0258 402.765 49.3498C403.189 51.621 403.826 53.945 404.675 56.3218C405.524 58.6458 406.798 60.5736 408.496 62.1054C410.194 63.5843 412.184 64.3237 414.466 64.3237C416.694 64.3237 420.091 63.822 424.654 62.8184ZM425.052 33.029C420.435 35.3002 414.519 37.4658 407.302 39.5257C407.726 36.3038 409.239 33.5836 411.839 31.3653C414.492 29.1469 417.437 28.0377 420.674 28.0377C421.948 28.0377 422.903 28.4339 423.54 29.2261C424.177 30.0184 424.681 31.286 425.052 33.029Z" fill="white"/>
<path d="M411.839 9.26092C410.884 7.99329 409.69 7.35947 408.257 7.35947C407.355 7.35947 406.639 7.7292 406.108 8.46865C405.63 9.15529 405.392 10.0796 405.392 11.2416C405.392 12.7733 405.816 14.173 406.665 15.4406C407.567 16.7083 408.761 17.3421 410.247 17.3421C411.202 17.3421 411.945 16.9988 412.476 16.3121C413.006 15.5727 413.272 14.622 413.272 13.46C413.272 11.8754 412.794 10.4757 411.839 9.26092Z" fill="white"/>
<path d="M428.236 9.26092C427.281 7.99329 426.087 7.35947 424.654 7.35947C423.752 7.35947 423.036 7.7292 422.505 8.46865C422.027 9.15529 421.789 10.0796 421.789 11.2416C421.789 12.7733 422.213 14.173 423.062 15.4406C423.911 16.7083 425.079 17.3421 426.564 17.3421C427.52 17.3421 428.263 16.9988 428.793 16.3121C429.377 15.5727 429.669 14.622 429.669 13.46C429.669 11.8754 429.191 10.4757 428.236 9.26092Z" fill="white"/>
<path d="M464.294 66.1459C464.824 66.1459 465.726 65.9875 467 65.6706L466.761 62.1846C466.124 62.343 465.541 62.4223 465.01 62.4223C462.994 62.4223 461.296 61.498 459.916 59.6493C458.536 57.7479 457.475 55.6616 456.732 53.3904C456.042 51.0664 454.981 48.8216 453.548 46.6561C452.168 44.4906 450.497 43.1701 448.533 42.6947C449.913 42.3778 451.187 41.2422 452.354 39.288C453.521 37.3337 454.477 35.3002 455.22 33.1875C456.016 31.022 457.183 29.0677 458.722 27.3247C460.314 25.5289 462.171 24.631 464.294 24.631C464.824 24.631 465.249 24.6574 465.567 24.7102L465.886 22.0165C463.869 21.3827 462.383 21.0658 461.428 21.0658C459.571 21.0658 457.952 21.6468 456.573 22.8087C455.246 23.9707 454.158 25.3968 453.309 27.087C452.46 28.7772 451.638 30.4938 450.842 32.2368C450.099 33.9798 449.117 35.5379 447.897 36.9112C446.729 38.2844 445.349 39.1031 443.758 39.3672C443.704 38.4693 443.651 36.1189 443.598 32.316C443.545 28.4603 443.306 25.5025 442.882 23.4426L439.3 22.1749C438.822 25.5553 438.584 30.124 438.584 35.8812C438.584 43.6983 438.478 52.0435 438.265 60.917C438.478 62.0261 439.008 62.9769 439.857 63.7691C440.759 64.5086 441.688 64.8783 442.643 64.8783C444.023 64.8783 444.951 64.0596 445.429 62.4223C444.898 55.3447 444.527 50.2213 444.315 47.0522C444.686 46.8938 445.084 46.8145 445.509 46.8145C446.623 46.8145 447.711 47.4748 448.772 48.7952C449.833 50.1157 450.815 51.7266 451.717 53.6281C452.672 55.5295 453.681 57.431 454.742 59.3324C455.803 61.2339 457.156 62.8448 458.801 64.1653C460.446 65.4857 462.277 66.1459 464.294 66.1459Z" fill="white"/>
</svg>
