<svg width="15" height="15" viewBox="0 0 15 15" fill="none" xmlns="http://www.w3.org/2000/svg">
<path d="M2.34375 0.976186C1.97079 0.976186 1.6131 1.13046 1.34938 1.40506C1.08566 1.67967 0.9375 2.05211 0.9375 2.44047V9.27377C0.9375 9.66212 1.08566 10.0346 1.34938 10.3092C1.6131 10.5838 1.97079 10.7381 2.34375 10.7381H4.0625V13.8592C4.0625 13.9914 4.20625 14.0688 4.31 13.9907L8.64 10.7381H12.6562C13.0292 10.7381 13.3869 10.5838 13.6506 10.3092C13.9143 10.0346 14.0625 9.66212 14.0625 9.27377V2.44047C14.0625 2.05211 13.9143 1.67967 13.6506 1.40506C13.3869 1.13046 13.0292 0.976186 12.6562 0.976186H2.34375ZM0 2.44047C0 1.79321 0.24693 1.17247 0.686468 0.714796C1.12601 0.25712 1.72215 0 2.34375 0H12.6562C13.2779 0 13.874 0.25712 14.3135 0.714796C14.7531 1.17247 15 1.79321 15 2.44047V9.27377C15 9.92102 14.7531 10.5418 14.3135 10.9994C13.874 11.4571 13.2779 11.7142 12.6562 11.7142H8.94312L4.85875 14.7827C4.135 15.3261 3.125 14.7879 3.125 13.8586V11.7142H2.34375C1.72215 11.7142 1.12601 11.4571 0.686468 10.9994C0.24693 10.5418 0 9.92102 0 9.27377V2.44047Z" fill="#8EF1FF"/>
</svg>
