<svg width="969" height="391" viewBox="0 0 969 391" fill="none" xmlns="http://www.w3.org/2000/svg">
<path fill-rule="evenodd" clip-rule="evenodd" d="M103.555 163.281L102.91 155.117C96.0352 156.836 90.4492 157.695 86.1523 157.695C81.7122 157.695 77.9167 155.977 74.7656 152.539C71.7578 149.102 69.3945 144.805 67.6758 139.648C65.957 134.492 63.9518 128.763 61.6602 122.461C59.3685 116.016 57.0052 109.928 54.5703 104.199C52.1354 98.4701 48.4115 93.3138 43.3984 88.7305C38.3854 84.1471 32.4414 81.0677 25.5664 79.4922C33.3008 77.6302 39.8177 73.9779 45.1172 68.5352C50.4167 63.0924 54.4271 57.1484 57.1484 50.7031C59.8698 44.1146 62.3763 37.7409 64.668 31.582C66.9596 25.2799 69.8242 20.0521 73.2617 15.8984C76.6992 11.7448 80.9245 9.66797 85.9375 9.66797C87.2266 9.66797 92.3112 10.3841 101.191 11.8164L103.34 3.22266C91.7383 1.07422 83.5026 0 78.6328 0C72.1875 0 66.6016 2.29167 61.875 6.875C57.2917 11.3151 53.5677 16.7578 50.7031 23.2031C47.8385 29.5052 44.974 35.8789 42.1094 42.3242C39.388 48.7695 35.8073 54.2839 31.3672 58.8672C27.0703 63.3073 21.8424 65.599 15.6836 65.7422C15.5404 60.4427 15.1107 50.3451 14.3945 35.4492C13.6784 20.4102 13.2487 10.1693 13.1055 4.72656L3.4375 2.57812C3.00781 9.73958 2.36328 36.0938 1.50391 81.6406C0.644531 127.044 0.143229 151.25 0 154.258C0.572917 157.266 2.00521 159.844 4.29688 161.992C6.73177 164.141 9.23828 165.215 11.8164 165.215C15.5404 165.215 18.0469 162.995 19.3359 158.555L17.1875 95.3906C22.7734 95.3906 27.5716 97.181 31.582 100.762C35.5924 104.199 38.6003 108.568 40.6055 113.867C42.7539 119.167 44.974 124.896 47.2656 131.055C49.7005 137.214 52.0638 142.943 54.3555 148.242C56.7904 153.542 60.2995 157.91 64.8828 161.348C69.6094 164.928 75.2669 166.719 81.8555 166.719C88.7305 166.719 95.9635 165.573 103.555 163.281ZM126.973 48.9844L114.941 46.8359L112.363 211.621C112.936 214.629 114.368 217.135 116.66 219.141C119.095 221.289 121.602 222.363 124.18 222.363C127.904 222.363 130.41 220.143 131.699 215.703C131.27 203.529 130.768 184.909 130.195 159.844C137.214 163.854 144.518 165.859 152.109 165.859C160.13 165.859 166.934 163.854 172.52 159.844C178.249 155.69 182.474 150.247 185.195 143.516C187.917 136.641 189.779 129.98 190.781 123.535C191.927 116.947 192.5 110.072 192.5 102.91C192.5 88.7305 188.848 76.0547 181.543 64.8828C174.238 53.7109 164.069 48.125 151.035 48.125C143.014 48.125 135.065 50.6315 127.188 55.6445C127.044 54.2122 126.973 51.9922 126.973 48.9844ZM129.551 139.004L128.906 69.6094C129.766 67.0312 132.415 65.026 136.855 63.5938C141.439 62.0182 146.38 61.2305 151.68 61.2305C168.151 61.2305 176.387 73.4049 176.387 97.7539C176.387 103.483 176.029 108.926 175.312 114.082C174.74 119.238 173.594 124.824 171.875 130.84C170.299 136.712 167.507 141.439 163.496 145.02C159.629 148.6 154.902 150.391 149.316 150.391C145.02 150.391 141.081 149.388 137.5 147.383C133.919 145.234 131.27 142.441 129.551 139.004ZM211.621 94.9609C210.475 101.979 209.902 108.353 209.902 114.082C209.902 127.975 213.483 139.72 220.645 149.316C227.806 158.77 237.975 164.355 251.152 166.074C258.314 165.501 264.544 163.21 269.844 159.199C275.286 155.046 279.44 149.889 282.305 143.73C285.169 137.572 287.246 131.341 288.535 125.039C289.967 118.594 290.684 112.148 290.684 105.703C290.684 90.5208 286.53 76.7708 278.223 64.4531C269.915 51.9922 258.887 45.7617 245.137 45.7617C238.691 45.7617 233.034 48.3398 228.164 53.4961C223.294 58.6523 219.642 65.0977 217.207 72.832C214.772 80.5664 212.91 87.9427 211.621 94.9609ZM233.75 70.6836C237.188 62.0898 241.413 57.5065 246.426 56.9336C255.879 58.0794 263.255 63.0208 268.555 71.7578C273.854 80.4948 276.504 90.7357 276.504 102.48C276.504 106.491 275.931 111.074 274.785 116.23C273.783 121.387 272.207 126.543 270.059 131.699C268.053 136.712 265.26 140.938 261.68 144.375C258.099 147.812 254.089 149.531 249.648 149.531C243.49 149.531 237.904 146.165 232.891 139.434C228.021 132.559 225.586 125.111 225.586 117.09C225.586 110.931 226.087 103.841 227.09 95.8203C228.092 87.6562 230.312 79.2773 233.75 70.6836ZM299.277 160.273L308.516 165.215C311.237 160.488 316.322 152.897 323.77 142.441C331.361 131.842 336.374 124.538 338.809 120.527C349.837 136.283 356.641 148.457 359.219 157.051C361.797 161.777 365.521 164.141 370.391 164.141C375.26 164.141 377.695 161.419 377.695 155.977C372.396 145.234 362.155 129.264 346.973 108.066C348.405 105.918 352.129 99.7591 358.145 89.5898C364.16 79.4206 369.102 71.9727 372.969 67.2461C373.971 65.2409 374.473 63.1641 374.473 61.0156C374.473 57.1484 371.895 53.7826 366.738 50.918C362.441 54.3555 358.574 58.3659 355.137 62.9492C351.842 67.5326 348.405 72.9753 344.824 79.2773C341.387 85.5794 338.594 90.2344 336.445 93.2422C323.841 75.3385 314.889 60.8008 309.59 49.6289H300.137C310.736 75.9831 320.189 94.8177 328.496 106.133C312.741 132.917 303.001 150.964 299.277 160.273ZM389.727 56.0742L394.023 67.0312C403.047 60.2995 411.139 56.9336 418.301 56.9336C430.475 56.9336 437.135 65.3125 438.281 82.0703C437.852 82.0703 437.207 81.9987 436.348 81.8555C435.632 81.7122 434.987 81.6406 434.414 81.6406C433.841 81.4974 433.268 81.4258 432.695 81.4258C419.518 81.4258 407.702 86.7969 397.246 97.5391C386.934 108.281 381.777 120.312 381.777 133.633C381.777 141.51 384.57 148.242 390.156 153.828C395.885 159.271 402.546 161.992 410.137 161.992C420.163 161.992 429.616 157.695 438.496 149.102C438.353 149.531 438.281 150.247 438.281 151.25C438.281 154.401 439.355 157.266 441.504 159.844C443.652 162.422 446.016 163.711 448.594 163.711C451.888 163.711 454.108 161.491 455.254 157.051C455.254 151.465 455.54 143.086 456.113 131.914C456.829 120.742 457.188 112.292 457.188 106.562C457.188 64.7396 445.085 43.8281 420.879 43.8281C415.293 43.8281 409.635 44.974 403.906 47.2656C398.177 49.4141 393.451 52.3503 389.727 56.0742ZM439.355 111.504C439.355 116.66 439.212 124.251 438.926 134.277C426.751 142.728 417.513 146.953 411.211 146.953C407.201 146.953 403.763 145.592 400.898 142.871C398.177 140.15 396.816 136.497 396.816 131.914C396.816 121.315 400.97 112.292 409.277 104.844C417.728 97.3958 427.038 93.6003 437.207 93.457H438.926C439.212 101.191 439.355 107.207 439.355 111.504ZM370.988 372.348L387.316 370.844C385.168 360.245 382.017 344.275 377.863 322.934C373.853 301.592 370.057 282.543 366.477 265.785C363.039 249.027 359.458 233.415 355.734 218.949C343.56 217.803 336.327 217.159 334.035 217.016C331.743 223.031 327.733 237.139 322.004 259.34C316.418 281.54 311.62 297.582 307.609 307.465C306.607 304.743 304.172 295.792 300.305 280.609C296.438 265.427 292.57 251.534 288.703 238.93C284.979 226.182 282.115 219.665 280.109 219.379C270.943 218.233 265.643 217.66 264.211 217.66C262.635 217.66 260.559 217.803 257.98 218.09C256.548 236.423 251.893 262.348 244.016 295.863C236.138 329.379 231.197 353.943 229.191 369.555L242.512 370.844C259.986 309.542 270.012 267.289 272.59 244.086C274.022 250.674 278.319 265.785 285.48 289.418C292.642 312.908 296.294 326.729 296.438 330.883C297.727 330.883 300.663 331.098 305.246 331.527C309.829 331.957 313.124 332.172 315.129 332.172H316.633C317.349 332.029 317.85 331.957 318.137 331.957C320.285 325.941 324.152 312.836 329.738 292.641C335.467 272.302 340.695 256.547 345.422 245.375C354.589 280.609 363.111 322.934 370.988 372.348ZM397.844 305.961C396.698 312.979 396.125 319.353 396.125 325.082C396.125 338.975 399.706 350.72 406.867 360.316C414.029 369.77 424.198 375.355 437.375 377.074C444.536 376.501 450.767 374.21 456.066 370.199C461.509 366.046 465.663 360.889 468.527 354.73C471.392 348.572 473.469 342.341 474.758 336.039C476.19 329.594 476.906 323.148 476.906 316.703C476.906 301.521 472.753 287.771 464.445 275.453C456.138 262.992 445.109 256.762 431.359 256.762C424.914 256.762 419.257 259.34 414.387 264.496C409.517 269.652 405.865 276.098 403.43 283.832C400.995 291.566 399.133 298.943 397.844 305.961ZM419.973 281.684C423.41 273.09 427.635 268.507 432.648 267.934C442.102 269.079 449.478 274.021 454.777 282.758C460.077 291.495 462.727 301.736 462.727 313.48C462.727 317.491 462.154 322.074 461.008 327.23C460.005 332.387 458.43 337.543 456.281 342.699C454.276 347.712 451.483 351.938 447.902 355.375C444.322 358.812 440.311 360.531 435.871 360.531C429.712 360.531 424.126 357.165 419.113 350.434C414.243 343.559 411.809 336.111 411.809 328.09C411.809 321.931 412.31 314.841 413.312 306.82C414.315 298.656 416.535 290.277 419.973 281.684ZM474.328 262.777L476.262 272.23L517.941 274.164C515.793 298.083 513.716 327.66 511.711 362.895C512.284 365.759 513.716 368.194 516.008 370.199C518.299 372.204 520.663 373.207 523.098 373.207C526.822 373.207 529.328 371.13 530.617 366.977C530.188 357.523 529.901 342.556 529.758 322.074C529.758 301.449 529.4 285.766 528.684 275.023L568.859 276.957C574.589 276.384 577.453 273.949 577.453 269.652C577.453 266.931 576.236 264.353 573.801 261.918C571.366 259.483 568.43 258.194 564.992 258.051C523.742 260.056 493.521 261.632 474.328 262.777ZM596.574 264.066L586.906 261.918C586.477 269.223 586.262 276.885 586.262 284.906V295.648C586.405 299.945 586.477 304.743 586.477 310.043C586.62 315.342 586.763 320.857 586.906 326.586C587.049 332.315 587.121 337.758 587.121 342.914C587.264 348.07 587.336 352.797 587.336 357.094C587.479 361.391 587.551 364.685 587.551 366.977C587.551 367.979 588.553 368.91 590.559 369.77C592.707 370.486 595.357 371.13 598.508 371.703C601.659 372.276 605.168 372.706 609.035 372.992C612.902 373.422 616.555 373.637 619.992 373.637C625.721 373.637 630.949 372.777 635.676 371.059C640.546 369.483 644.699 367.263 648.137 364.398C651.717 361.391 654.439 357.81 656.301 353.656C658.306 349.503 659.309 344.919 659.309 339.906C659.309 334.75 658.234 329.737 656.086 324.867C653.938 319.854 651.001 315.414 647.277 311.547C643.553 307.68 639.042 304.6 633.742 302.309C628.443 299.874 622.714 298.656 616.555 298.656C611.398 298.656 605.956 299.516 600.227 301.234C599.367 293.357 598.579 286.339 597.863 280.18C597.29 274.021 596.861 268.65 596.574 264.066ZM600.227 357.738L602.16 314.555C604.452 314.268 606.529 314.053 608.391 313.91C610.253 313.624 611.971 313.48 613.547 313.48C618.273 313.48 622.499 314.125 626.223 315.414C629.947 316.56 633.098 318.207 635.676 320.355C638.254 322.504 640.188 325.01 641.477 327.875C642.766 330.596 643.41 333.533 643.41 336.684C643.41 339.835 642.766 342.842 641.477 345.707C640.188 348.572 638.397 351.15 636.105 353.441C633.814 355.59 630.949 357.38 627.512 358.812C624.217 360.102 620.565 360.746 616.555 360.746C611.398 360.746 605.956 359.743 600.227 357.738ZM678.859 263.422L669.191 261.273C668.905 264.711 668.618 269.366 668.332 275.238C668.189 280.967 668.046 287.198 667.902 293.93C667.759 300.661 667.616 307.608 667.473 314.77C667.329 321.931 667.186 328.663 667.043 334.965C666.9 341.267 666.757 346.853 666.613 351.723C666.613 356.592 666.542 360.102 666.398 362.25C666.971 365.258 668.404 367.836 670.695 369.984C673.13 371.99 675.637 372.992 678.215 372.992C681.939 372.992 684.445 370.844 685.734 366.547C684.445 343.344 683.228 323.22 682.082 306.176C680.936 288.988 679.862 274.737 678.859 263.422ZM676.711 380.941L680.148 390.18C688.742 388.604 696.047 385.31 702.062 380.297C708.221 375.427 712.733 369.913 715.598 363.754C718.605 357.452 720.897 349.861 722.473 340.98C724.048 331.957 724.908 323.936 725.051 316.918C725.337 309.757 725.624 301.521 725.91 292.211C726.197 282.901 726.555 275.883 726.984 271.156C729.419 270.87 733.573 270.655 739.445 270.512C745.318 270.368 751.262 269.796 757.277 268.793C757.421 273.949 757.492 281.684 757.492 291.996C757.492 297.582 757.421 305.889 757.277 316.918V341.625C757.277 352.654 757.349 360.961 757.492 366.547C758.065 369.411 759.497 371.846 761.789 373.852C764.081 375.857 766.444 376.859 768.879 376.859C772.46 376.859 774.966 374.711 776.398 370.414C775.253 353.083 774.536 315.342 774.25 257.191C772.102 257.335 763.078 257.406 747.18 257.406C726.984 257.406 715.884 258.48 713.879 260.629C712.303 262.348 711.516 267.576 711.516 276.312C711.516 282.471 711.444 287.413 711.301 291.137C711.301 294.717 711.086 300.16 710.656 307.465C710.227 314.77 709.582 320.928 708.723 325.941C708.007 330.811 706.789 336.54 705.07 343.129C703.352 349.717 701.275 355.232 698.84 359.672C696.405 363.969 693.326 368.122 689.602 372.133C685.734 376.143 681.438 379.079 676.711 380.941ZM854.387 367.191C866.848 364.327 876.229 361.749 882.531 359.457L880.383 350.004C880.096 350.004 877.017 350.505 871.145 351.508C865.415 352.51 858.827 353.513 851.379 354.516C843.931 355.375 837.629 355.805 832.473 355.805C828.176 355.805 824.452 355.017 821.301 353.441C818.15 351.866 815.643 349.932 813.781 347.641C812.062 345.206 810.63 342.198 809.484 338.617C808.482 334.893 807.766 331.456 807.336 328.305C807.049 325.154 806.835 321.501 806.691 317.348C808.84 316.918 812.707 316.273 818.293 315.414C823.879 314.555 828.677 313.767 832.688 313.051C836.698 312.335 841.281 311.189 846.438 309.613C851.737 308.038 856.034 306.319 859.328 304.457C862.766 302.452 865.63 299.802 867.922 296.508C870.357 293.214 871.574 289.418 871.574 285.121C871.574 277.243 868.638 270.87 862.766 266C856.893 260.987 850.09 258.48 842.355 258.48C809.986 258.48 793.801 276.384 793.801 312.191C793.801 318.207 794.302 324.366 795.305 330.668C796.451 336.827 798.169 343.129 800.461 349.574C802.753 355.876 806.19 361.104 810.773 365.258C815.357 369.268 820.728 371.273 826.887 371.273C832.902 371.273 842.069 369.913 854.387 367.191ZM855.461 286.41C843 292.569 827.03 298.441 807.551 304.027C808.697 295.29 812.779 287.914 819.797 281.898C826.958 275.883 834.908 272.875 843.645 272.875C847.082 272.875 849.66 273.949 851.379 276.098C853.098 278.246 854.458 281.684 855.461 286.41ZM819.797 221.957C817.219 218.52 813.996 216.801 810.129 216.801C807.694 216.801 805.76 217.803 804.328 219.809C803.039 221.671 802.395 224.177 802.395 227.328C802.395 231.482 803.54 235.277 805.832 238.715C808.267 242.152 811.49 243.871 815.5 243.871C818.078 243.871 820.083 242.94 821.516 241.078C822.948 239.073 823.664 236.495 823.664 233.344C823.664 229.047 822.375 225.251 819.797 221.957ZM864.055 221.957C861.477 218.52 858.254 216.801 854.387 216.801C851.952 216.801 850.018 217.803 848.586 219.809C847.297 221.671 846.652 224.177 846.652 227.328C846.652 231.482 847.798 235.277 850.09 238.715C852.382 242.152 855.533 243.871 859.543 243.871C862.121 243.871 864.126 242.94 865.559 241.078C867.134 239.073 867.922 236.495 867.922 233.344C867.922 229.047 866.633 225.251 864.055 221.957ZM961.379 376.215C962.811 376.215 965.246 375.785 968.684 374.926L968.039 365.473C966.32 365.902 964.745 366.117 963.312 366.117C957.87 366.117 953.286 363.611 949.562 358.598C945.839 353.441 942.974 347.784 940.969 341.625C939.107 335.323 936.242 329.236 932.375 323.363C928.651 317.491 924.139 313.91 918.84 312.621C922.564 311.762 926.001 308.682 929.152 303.383C932.303 298.083 934.882 292.569 936.887 286.84C939.035 280.967 942.186 275.668 946.34 270.941C950.637 266.072 955.65 263.637 961.379 263.637C962.811 263.637 963.957 263.708 964.816 263.852L965.676 256.547C960.233 254.828 956.223 253.969 953.645 253.969C948.632 253.969 944.263 255.544 940.539 258.695C936.958 261.846 934.022 265.714 931.73 270.297C929.439 274.88 927.219 279.535 925.07 284.262C923.065 288.988 920.415 293.214 917.121 296.938C913.97 300.661 910.246 302.882 905.949 303.598C905.806 301.163 905.663 294.789 905.52 284.477C905.376 274.021 904.732 266 903.586 260.414L893.918 256.977C892.629 266.143 891.984 278.533 891.984 294.145C891.984 315.342 891.698 337.973 891.125 362.035C891.698 365.043 893.13 367.621 895.422 369.77C897.857 371.775 900.363 372.777 902.941 372.777C906.665 372.777 909.172 370.557 910.461 366.117C909.029 346.924 908.026 333.031 907.453 324.438C908.456 324.008 909.53 323.793 910.676 323.793C913.684 323.793 916.62 325.583 919.484 329.164C922.349 332.745 924.999 337.113 927.434 342.27C930.012 347.426 932.733 352.582 935.598 357.738C938.462 362.895 942.115 367.263 946.555 370.844C950.995 374.424 955.936 376.215 961.379 376.215Z" fill="white"/>
</svg>
