<svg width="140" height="25" viewBox="0 0 140 25" fill="none" xmlns="http://www.w3.org/2000/svg">
<path d="M12.1875 17.4844L12.2578 18.375C11.4297 18.625 10.6406 18.75 9.89062 18.75C9.17188 18.75 8.55469 18.5547 8.03906 18.1641C7.53906 17.7891 7.15625 17.3125 6.89062 16.7344C6.64062 16.1562 6.38281 15.5312 6.11719 14.8594C5.86719 14.1875 5.625 13.5625 5.39062 12.9844C5.17188 12.4062 4.84375 11.9297 4.40625 11.5547C3.96875 11.1641 3.44531 10.9688 2.83594 10.9688L3.07031 17.8594C2.92969 18.3438 2.65625 18.5859 2.25 18.5859C1.96875 18.5859 1.69531 18.4688 1.42969 18.2344C1.17969 18 1.02344 17.7188 0.960938 17.3906C0.976562 17.0625 1.03125 14.4219 1.125 9.46875C1.21875 4.5 1.28906 1.625 1.33594 0.84375L2.39062 1.07812C2.40625 1.67188 2.45312 2.78906 2.53125 4.42969C2.60938 6.05469 2.65625 7.15625 2.67188 7.73438C3.34375 7.71875 3.91406 7.46875 4.38281 6.98438C4.86719 6.48438 5.25781 5.88281 5.55469 5.17969C5.86719 4.47656 6.17969 3.78125 6.49219 3.09375C6.80469 2.39062 7.21094 1.79688 7.71094 1.3125C8.22656 0.8125 8.83594 0.5625 9.53906 0.5625C10.0703 0.5625 10.9688 0.679688 12.2344 0.914062L12 1.85156C11.0312 1.69531 10.4766 1.61719 10.3359 1.61719C9.78906 1.61719 9.32812 1.84375 8.95312 2.29688C8.57812 2.75 8.26562 3.32031 8.01562 4.00781C7.76562 4.67969 7.49219 5.375 7.19531 6.09375C6.89844 6.79688 6.46094 7.44531 5.88281 8.03906C5.30469 8.63281 4.59375 9.03125 3.75 9.23438C4.5 9.40625 5.14844 9.74219 5.69531 10.2422C6.24219 10.7422 6.64844 11.3047 6.91406 11.9297C7.17969 12.5547 7.4375 13.2188 7.6875 13.9219C7.9375 14.6094 8.15625 15.2344 8.34375 15.7969C8.53125 16.3594 8.78906 16.8281 9.11719 17.2031C9.46094 17.5781 9.875 17.7656 10.3594 17.7656C10.8281 17.7656 11.4375 17.6719 12.1875 17.4844Z" fill="black"/>
<path d="M13.5 5.67188L14.8125 5.90625C14.8125 6.23438 14.8203 6.47656 14.8359 6.63281C15.6953 6.08594 16.5625 5.8125 17.4375 5.8125C18.8594 5.8125 19.9688 6.42188 20.7656 7.64062C21.5625 8.85938 21.9609 10.2422 21.9609 11.7891C21.9609 12.5703 21.8984 13.3203 21.7734 14.0391C21.6641 14.7422 21.4609 15.4688 21.1641 16.2188C20.8672 16.9531 20.4062 17.5469 19.7812 18C19.1719 18.4375 18.4297 18.6562 17.5547 18.6562C16.7266 18.6562 15.9297 18.4375 15.1641 18C15.2266 20.7344 15.2812 22.7656 15.3281 24.0938C15.1875 24.5781 14.9141 24.8203 14.5078 24.8203C14.2266 24.8203 13.9531 24.7031 13.6875 24.4688C13.4375 24.25 13.2812 23.9766 13.2188 23.6484L13.5 5.67188ZM15.0234 8.15625L15.0938 15.7266C15.2812 16.1016 15.5703 16.4062 15.9609 16.6406C16.3516 16.8594 16.7812 16.9688 17.25 16.9688C17.8594 16.9688 18.375 16.7734 18.7969 16.3828C19.2344 15.9922 19.5391 15.4766 19.7109 14.8359C19.8984 14.1797 20.0234 13.5703 20.0859 13.0078C20.1641 12.4453 20.2031 11.8516 20.2031 11.2266C20.2031 8.57031 19.3047 7.24219 17.5078 7.24219C16.9297 7.24219 16.3906 7.32812 15.8906 7.5C15.4062 7.65625 15.1172 7.875 15.0234 8.15625Z" fill="black"/>
<path d="M23.8594 13.0078C23.8594 12.3828 23.9219 11.6875 24.0469 10.9219C24.1875 10.1562 24.3906 9.35156 24.6562 8.50781C24.9219 7.66406 25.3203 6.96094 25.8516 6.39844C26.3828 5.83594 27 5.55469 27.7031 5.55469C29.2031 5.55469 30.4062 6.23438 31.3125 7.59375C32.2188 8.9375 32.6719 10.4375 32.6719 12.0938C32.6719 12.7969 32.5938 13.5 32.4375 14.2031C32.2969 14.8906 32.0703 15.5703 31.7578 16.2422C31.4453 16.9141 30.9922 17.4766 30.3984 17.9297C29.8203 18.3672 29.1406 18.6172 28.3594 18.6797C26.9219 18.4922 25.8125 17.8828 25.0312 16.8516C24.25 15.8047 23.8594 14.5234 23.8594 13.0078ZM27.8438 6.77344C27.2969 6.83594 26.8359 7.33594 26.4609 8.27344C26.0859 9.21094 25.8438 10.125 25.7344 11.0156C25.625 11.8906 25.5703 12.6641 25.5703 13.3359C25.5703 14.2109 25.8359 15.0234 26.3672 15.7734C26.9141 16.5078 27.5234 16.875 28.1953 16.875C28.6797 16.875 29.1172 16.6875 29.5078 16.3125C29.8984 15.9375 30.2031 15.4766 30.4219 14.9297C30.6562 14.3672 30.8281 13.8047 30.9375 13.2422C31.0625 12.6797 31.125 12.1797 31.125 11.7422C31.125 10.4609 30.8359 9.34375 30.2578 8.39062C29.6797 7.4375 28.875 6.89844 27.8438 6.77344Z" fill="black"/>
<path d="M34.6172 18.5859L33.6094 18.0469C34.0156 17.0312 35.0781 15.0625 36.7969 12.1406C35.8906 10.9062 34.8594 8.85156 33.7031 5.97656H34.7344C35.3125 7.19531 36.2891 8.78125 37.6641 10.7344C37.8984 10.4062 38.2031 9.89844 38.5781 9.21094C38.9688 8.52344 39.3438 7.92969 39.7031 7.42969C40.0781 6.92969 40.5 6.49219 40.9688 6.11719C41.5312 6.42969 41.8125 6.79688 41.8125 7.21875C41.8125 7.45312 41.7578 7.67969 41.6484 7.89844C41.2266 8.41406 40.6875 9.22656 40.0312 10.3359C39.375 11.4453 38.9688 12.1172 38.8125 12.3516C40.4688 14.6641 41.5859 16.4062 42.1641 17.5781C42.1641 18.1719 41.8984 18.4688 41.3672 18.4688C40.8359 18.4688 40.4297 18.2109 40.1484 17.6953C39.8672 16.7578 39.125 15.4297 37.9219 13.7109C37.6562 14.1484 37.1094 14.9453 36.2812 16.1016C35.4688 17.2422 34.9141 18.0703 34.6172 18.5859Z" fill="black"/>
<path d="M43.9453 7.875L43.4766 6.67969C43.8828 6.27344 44.3984 5.95312 45.0234 5.71875C45.6484 5.46875 46.2656 5.34375 46.875 5.34375C49.5156 5.34375 50.8359 7.625 50.8359 12.1875C50.8359 12.8125 50.7969 13.7344 50.7188 14.9531C50.6562 16.1719 50.625 17.0859 50.625 17.6953C50.5 18.1797 50.2578 18.4219 49.8984 18.4219C49.6172 18.4219 49.3594 18.2812 49.125 18C48.8906 17.7188 48.7734 17.4062 48.7734 17.0625C48.7734 16.9531 48.7812 16.875 48.7969 16.8281C47.8281 17.7656 46.7969 18.2344 45.7031 18.2344C44.875 18.2344 44.1484 17.9375 43.5234 17.3438C42.9141 16.7344 42.6094 16 42.6094 15.1406C42.6094 13.6875 43.1719 12.375 44.2969 11.2031C45.4375 10.0312 46.7266 9.44531 48.1641 9.44531C48.2266 9.44531 48.2891 9.45312 48.3516 9.46875C48.4141 9.46875 48.4844 9.47656 48.5625 9.49219C48.6562 9.50781 48.7266 9.51562 48.7734 9.51562C48.6484 7.6875 47.9219 6.77344 46.5938 6.77344C45.8125 6.77344 44.9297 7.14062 43.9453 7.875ZM48.8438 15.2109C48.875 14.1172 48.8906 13.2891 48.8906 12.7266C48.8906 12.2578 48.875 11.6016 48.8438 10.7578H48.6562C47.5469 10.7734 46.5312 11.1875 45.6094 12C44.7031 12.8125 44.25 13.7969 44.25 14.9531C44.25 15.4531 44.3984 15.8516 44.6953 16.1484C45.0078 16.4453 45.3828 16.5938 45.8203 16.5938C46.5078 16.5938 47.5156 16.1328 48.8438 15.2109Z" fill="black"/>
<path d="M75.7266 18L73.9453 18.1641C73.0859 12.7734 72.1562 8.15625 71.1562 4.3125C70.6406 5.53125 70.0703 7.25 69.4453 9.46875C68.8359 11.6719 68.4141 13.1016 68.1797 13.7578C68.1484 13.7578 68.0938 13.7656 68.0156 13.7812C67.9531 13.7812 67.8984 13.7812 67.8516 13.7812C67.6328 13.7812 67.2734 13.7578 66.7734 13.7109C66.2734 13.6641 65.9531 13.6406 65.8125 13.6406C65.7969 13.1875 65.3984 11.6797 64.6172 9.11719C63.8359 6.53906 63.3672 4.89062 63.2109 4.17188C62.9297 6.70312 61.8359 11.3125 59.9297 18L58.4766 17.8594C58.6953 16.1562 59.2344 13.4766 60.0938 9.82031C60.9531 6.16406 61.4609 3.33594 61.6172 1.33594C61.8984 1.30469 62.125 1.28906 62.2969 1.28906C62.4531 1.28906 63.0312 1.35156 64.0312 1.47656C64.25 1.50781 64.5625 2.21875 64.9688 3.60938C65.3906 4.98438 65.8125 6.5 66.2344 8.15625C66.6562 9.8125 66.9219 10.7891 67.0312 11.0859C67.4688 10.0078 67.9922 8.25781 68.6016 5.83594C69.2266 3.41406 69.6641 1.875 69.9141 1.21875C70.1641 1.23438 70.9531 1.30469 72.2812 1.42969C72.6875 3.00781 73.0781 4.71094 73.4531 6.53906C73.8438 8.36719 74.2578 10.4453 74.6953 12.7734C75.1484 15.1016 75.4922 16.8438 75.7266 18Z" fill="black"/>
<path d="M76.6875 13.0078C76.6875 12.3828 76.75 11.6875 76.875 10.9219C77.0156 10.1562 77.2188 9.35156 77.4844 8.50781C77.75 7.66406 78.1484 6.96094 78.6797 6.39844C79.2109 5.83594 79.8281 5.55469 80.5312 5.55469C82.0312 5.55469 83.2344 6.23438 84.1406 7.59375C85.0469 8.9375 85.5 10.4375 85.5 12.0938C85.5 12.7969 85.4219 13.5 85.2656 14.2031C85.125 14.8906 84.8984 15.5703 84.5859 16.2422C84.2734 16.9141 83.8203 17.4766 83.2266 17.9297C82.6484 18.3672 81.9688 18.6172 81.1875 18.6797C79.75 18.4922 78.6406 17.8828 77.8594 16.8516C77.0781 15.8047 76.6875 14.5234 76.6875 13.0078ZM80.6719 6.77344C80.125 6.83594 79.6641 7.33594 79.2891 8.27344C78.9141 9.21094 78.6719 10.125 78.5625 11.0156C78.4531 11.8906 78.3984 12.6641 78.3984 13.3359C78.3984 14.2109 78.6641 15.0234 79.1953 15.7734C79.7422 16.5078 80.3516 16.875 81.0234 16.875C81.5078 16.875 81.9453 16.6875 82.3359 16.3125C82.7266 15.9375 83.0312 15.4766 83.25 14.9297C83.4844 14.3672 83.6562 13.8047 83.7656 13.2422C83.8906 12.6797 83.9531 12.1797 83.9531 11.7422C83.9531 10.4609 83.6641 9.34375 83.0859 8.39062C82.5078 7.4375 81.7031 6.89844 80.6719 6.77344Z" fill="black"/>
<path d="M85.4297 7.24219L85.2188 6.21094C87.3125 6.08594 90.6094 5.91406 95.1094 5.69531C95.4844 5.71094 95.8047 5.85156 96.0703 6.11719C96.3359 6.38281 96.4688 6.66406 96.4688 6.96094C96.4688 7.42969 96.1562 7.69531 95.5312 7.75781L91.1484 7.54688C91.2266 8.71875 91.2656 10.4297 91.2656 12.6797C91.2812 14.9141 91.3125 16.5469 91.3594 17.5781C91.2188 18.0312 90.9453 18.2578 90.5391 18.2578C90.2734 18.2578 90.0156 18.1484 89.7656 17.9297C89.5156 17.7109 89.3594 17.4453 89.2969 17.1328C89.5156 13.2891 89.7422 10.0625 89.9766 7.45312L85.4297 7.24219Z" fill="black"/>
<path d="M97.5 6.11719L98.5547 6.35156C98.5859 6.85156 98.6328 7.4375 98.6953 8.10938C98.7734 8.78125 98.8594 9.54688 98.9531 10.4062C99.5781 10.2188 100.172 10.125 100.734 10.125C101.406 10.125 102.031 10.2578 102.609 10.5234C103.188 10.7734 103.68 11.1094 104.086 11.5312C104.492 11.9531 104.812 12.4375 105.047 12.9844C105.281 13.5156 105.398 14.0625 105.398 14.625C105.398 15.1719 105.289 15.6719 105.07 16.125C104.867 16.5781 104.57 16.9688 104.18 17.2969C103.805 17.6094 103.352 17.8516 102.82 18.0234C102.305 18.2109 101.734 18.3047 101.109 18.3047C100.734 18.3047 100.336 18.2812 99.9141 18.2344C99.4922 18.2031 99.1094 18.1562 98.7656 18.0938C98.4219 18.0312 98.1328 17.9609 97.8984 17.8828C97.6797 17.7891 97.5703 17.6875 97.5703 17.5781C97.5703 17.3281 97.5625 16.9688 97.5469 16.5C97.5469 16.0312 97.5391 15.5156 97.5234 14.9531C97.5234 14.3906 97.5156 13.7969 97.5 13.1719C97.4844 12.5469 97.4688 11.9453 97.4531 11.3672C97.4531 10.7891 97.4453 10.2656 97.4297 9.79688C97.4297 9.3125 97.4297 8.92188 97.4297 8.625C97.4297 7.75 97.4531 6.91406 97.5 6.11719ZM99.1641 11.8594L98.9531 16.5703C99.5781 16.7891 100.172 16.8984 100.734 16.8984C101.172 16.8984 101.57 16.8281 101.93 16.6875C102.305 16.5312 102.617 16.3359 102.867 16.1016C103.117 15.8516 103.312 15.5703 103.453 15.2578C103.594 14.9453 103.664 14.6172 103.664 14.2734C103.664 13.9297 103.594 13.6094 103.453 13.3125C103.312 13 103.102 12.7266 102.82 12.4922C102.539 12.2578 102.195 12.0781 101.789 11.9531C101.383 11.8125 100.922 11.7422 100.406 11.7422C100.234 11.7422 100.047 11.7578 99.8438 11.7891C99.6406 11.8047 99.4141 11.8281 99.1641 11.8594ZM106.477 6.04688L107.531 6.28125C107.641 7.51562 107.758 9.07031 107.883 10.9453C108.008 12.8047 108.141 15 108.281 17.5312C108.141 18 107.867 18.2344 107.461 18.2344C107.18 18.2344 106.906 18.125 106.641 17.9062C106.391 17.6719 106.234 17.3906 106.172 17.0625C106.188 16.8281 106.195 16.4453 106.195 15.9141C106.211 15.3828 106.227 14.7734 106.242 14.0859C106.258 13.3984 106.273 12.6641 106.289 11.8828C106.305 11.1016 106.32 10.3438 106.336 9.60938C106.352 8.875 106.367 8.19531 106.383 7.57031C106.414 6.92969 106.445 6.42188 106.477 6.04688Z" fill="black"/>
<path d="M107.672 20.1094L107.297 19.1016C107.812 18.8984 108.281 18.5781 108.703 18.1406C109.109 17.7031 109.445 17.25 109.711 16.7812C109.977 16.2969 110.203 15.6953 110.391 14.9766C110.578 14.2578 110.711 13.6328 110.789 13.1016C110.883 12.5547 110.953 11.8828 111 11.0859C111.047 10.2891 111.07 9.69531 111.07 9.30469C111.086 8.89844 111.094 8.35938 111.094 7.6875C111.094 6.73438 111.18 6.16406 111.352 5.97656C111.57 5.74219 112.781 5.625 114.984 5.625C116.719 5.625 117.703 5.61719 117.938 5.60156C117.969 11.9453 118.047 16.0625 118.172 17.9531C118.016 18.4219 117.742 18.6562 117.352 18.6562C117.086 18.6562 116.828 18.5469 116.578 18.3281C116.328 18.1094 116.172 17.8438 116.109 17.5312C116.094 16.9219 116.086 16.0156 116.086 14.8125C116.086 14.2188 116.086 13.3203 116.086 12.1172C116.102 10.9141 116.109 10.0078 116.109 9.39844C116.109 8.27344 116.102 7.42969 116.086 6.86719C115.43 6.97656 114.781 7.03906 114.141 7.05469C113.5 7.07031 113.047 7.09375 112.781 7.125C112.734 7.64062 112.695 8.40625 112.664 9.42188C112.633 10.4375 112.602 11.3359 112.57 12.1172C112.555 12.8828 112.461 13.7578 112.289 14.7422C112.117 15.7109 111.867 16.5391 111.539 17.2266C111.227 17.8984 110.734 18.5 110.062 19.0312C109.406 19.5781 108.609 19.9375 107.672 20.1094Z" fill="black"/>
<path d="M129.516 15.7266L129.75 16.7578C129.062 17.0078 128.039 17.2891 126.68 17.6016C125.336 17.8984 124.336 18.0469 123.68 18.0469C123.008 18.0469 122.422 17.8281 121.922 17.3906C121.422 16.9375 121.047 16.3672 120.797 15.6797C120.547 14.9766 120.359 14.2891 120.234 13.6172C120.125 12.9297 120.07 12.2578 120.07 11.6016C120.07 7.69531 121.836 5.74219 125.367 5.74219C126.211 5.74219 126.953 6.01562 127.594 6.5625C128.234 7.09375 128.555 7.78906 128.555 8.64844C128.555 9.11719 128.422 9.53125 128.156 9.89062C127.906 10.25 127.594 10.5391 127.219 10.7578C126.859 10.9609 126.391 11.1484 125.812 11.3203C125.25 11.4922 124.75 11.6172 124.312 11.6953C123.875 11.7734 123.352 11.8594 122.742 11.9531C122.133 12.0469 121.711 12.1172 121.477 12.1641C121.492 12.6172 121.516 13.0156 121.547 13.3594C121.594 13.7031 121.672 14.0781 121.781 14.4844C121.906 14.875 122.062 15.2031 122.25 15.4688C122.453 15.7188 122.727 15.9297 123.07 16.1016C123.414 16.2734 123.82 16.3594 124.289 16.3594C124.852 16.3594 125.539 16.3125 126.352 16.2188C127.164 16.1094 127.883 16 128.508 15.8906C129.148 15.7812 129.484 15.7266 129.516 15.7266ZM121.57 10.7109C123.695 10.1016 125.438 9.46094 126.797 8.78906C126.688 8.27344 126.539 7.89844 126.352 7.66406C126.164 7.42969 125.883 7.3125 125.508 7.3125C124.555 7.3125 123.688 7.64062 122.906 8.29688C122.141 8.95312 121.695 9.75781 121.57 10.7109ZM121.852 1.19531C122.273 1.19531 122.625 1.38281 122.906 1.75781C123.188 2.11719 123.328 2.53125 123.328 3C123.328 3.34375 123.25 3.625 123.094 3.84375C122.938 4.04688 122.719 4.14844 122.438 4.14844C122 4.14844 121.648 3.96094 121.383 3.58594C121.133 3.21094 121.008 2.79688 121.008 2.34375C121.008 2 121.078 1.72656 121.219 1.52344C121.375 1.30469 121.586 1.19531 121.852 1.19531ZM126.68 1.19531C127.102 1.19531 127.453 1.38281 127.734 1.75781C128.016 2.11719 128.156 2.53125 128.156 3C128.156 3.34375 128.07 3.625 127.898 3.84375C127.742 4.04688 127.523 4.14844 127.242 4.14844C126.805 4.14844 126.461 3.96094 126.211 3.58594C125.961 3.21094 125.836 2.79688 125.836 2.34375C125.836 2 125.906 1.72656 126.047 1.52344C126.203 1.30469 126.414 1.19531 126.68 1.19531Z" fill="black"/>
<path d="M139.078 17.4141L139.148 18.4453C138.773 18.5391 138.508 18.5859 138.352 18.5859C137.758 18.5859 137.219 18.3906 136.734 18C136.25 17.6094 135.852 17.1328 135.539 16.5703C135.227 16.0078 134.93 15.4453 134.648 14.8828C134.383 14.3203 134.094 13.8438 133.781 13.4531C133.469 13.0625 133.148 12.8672 132.82 12.8672C132.695 12.8672 132.578 12.8906 132.469 12.9375C132.531 13.875 132.641 15.3906 132.797 17.4844C132.656 17.9688 132.383 18.2109 131.977 18.2109C131.695 18.2109 131.422 18.1016 131.156 17.8828C130.906 17.6484 130.75 17.3672 130.688 17.0391C130.75 14.4141 130.781 11.9453 130.781 9.63281C130.781 7.92969 130.852 6.57812 130.992 5.57812L132.047 5.95312C132.172 6.5625 132.242 7.4375 132.258 8.57812C132.273 9.70312 132.289 10.3984 132.305 10.6641C132.773 10.5859 133.18 10.3438 133.523 9.9375C133.883 9.53125 134.172 9.07031 134.391 8.55469C134.625 8.03906 134.867 7.53125 135.117 7.03125C135.367 6.53125 135.688 6.10938 136.078 5.76562C136.484 5.42188 136.961 5.25 137.508 5.25C137.789 5.25 138.227 5.34375 138.82 5.53125L138.727 6.32812C138.633 6.3125 138.508 6.30469 138.352 6.30469C137.727 6.30469 137.18 6.57031 136.711 7.10156C136.258 7.61719 135.914 8.19531 135.68 8.83594C135.461 9.46094 135.18 10.0625 134.836 10.6406C134.492 11.2188 134.117 11.5547 133.711 11.6484C134.289 11.7891 134.781 12.1797 135.188 12.8203C135.609 13.4609 135.922 14.125 136.125 14.8125C136.344 15.4844 136.656 16.1016 137.062 16.6641C137.469 17.2109 137.969 17.4844 138.562 17.4844C138.719 17.4844 138.891 17.4609 139.078 17.4141Z" fill="black"/>
</svg>
