<svg width="22" height="22" viewBox="0 0 22 22" fill="none" xmlns="http://www.w3.org/2000/svg">
<path d="M0.0315715 7.61376C0.532536 6.13749 1.35549 4.77924 2.44625 3.62845C2.53641 3.53337 2.65414 3.466 2.78449 3.43489C2.91485 3.40379 3.05195 3.41036 3.17838 3.45377L5.77881 4.34141C5.96393 4.4045 6.16122 4.42841 6.35699 4.4115C6.55276 4.39458 6.74234 4.33724 6.91258 4.24345C7.08283 4.14966 7.22966 4.02166 7.34292 3.86832C7.45617 3.71499 7.53313 3.53998 7.56847 3.35543L8.06333 0.759809C8.0873 0.633455 8.15012 0.516766 8.2438 0.424596C8.33748 0.332427 8.45778 0.268946 8.58939 0.242237C10.1782 -0.0807456 11.8205 -0.0807456 13.4093 0.242237C13.5409 0.268946 13.6612 0.332427 13.7548 0.424596C13.8485 0.516766 13.9113 0.633455 13.9353 0.759809L14.4315 3.35543C14.4669 3.53998 14.5438 3.71499 14.6571 3.86832C14.7703 4.02166 14.9172 4.14966 15.0874 4.24345C15.2577 4.33724 15.4472 4.39458 15.643 4.4115C15.8388 4.42841 16.0361 4.4045 16.2212 4.34141L18.823 3.45377C18.9494 3.4108 19.0863 3.40458 19.2163 3.4359C19.3464 3.46723 19.4639 3.53469 19.5537 3.62975C20.6439 4.78027 21.4663 6.13806 21.9671 7.61376C22.0084 7.73565 22.0109 7.86651 21.9742 7.98975C21.9375 8.11299 21.8633 8.22306 21.761 8.30601L19.6527 10.014C19.503 10.1355 19.3826 10.2866 19.3001 10.4568C19.2176 10.6271 19.1749 10.8124 19.1749 11C19.1749 11.1875 19.2176 11.3729 19.3001 11.5431C19.3826 11.7134 19.503 11.8645 19.6527 11.9859L21.761 13.6939C21.8633 13.7769 21.9375 13.8869 21.9742 14.0102C22.0109 14.1334 22.0084 14.2643 21.9671 14.3862C21.4665 15.8623 20.644 17.2206 19.5537 18.3715C19.4636 18.4666 19.3459 18.5339 19.2155 18.5651C19.0851 18.5962 18.948 18.5896 18.8216 18.5462L16.2212 17.6585C16.0361 17.5954 15.8388 17.5715 15.643 17.5884C15.4472 17.6054 15.2577 17.6627 15.0874 17.7565C14.9172 17.8503 14.7703 17.9783 14.6571 18.1316C14.5438 18.285 14.4669 18.46 14.4315 18.6445L13.934 21.2414C13.9098 21.3674 13.8471 21.4837 13.7537 21.5756C13.6603 21.6675 13.5404 21.7309 13.4093 21.7577C11.8205 22.0808 10.1782 22.0808 8.58939 21.7577C8.45778 21.731 8.33748 21.6675 8.2438 21.5753C8.15012 21.4832 8.0873 21.3665 8.06333 21.2401L7.56847 18.6445C7.53313 18.46 7.45617 18.285 7.34292 18.1316C7.22966 17.9783 7.08283 17.8503 6.91258 17.7565C6.74234 17.6627 6.55276 17.6054 6.35699 17.5884C6.16122 17.5715 5.96393 17.5954 5.77881 17.6585L3.17703 18.5462C3.05065 18.5891 2.91374 18.5954 2.78365 18.564C2.65357 18.5327 2.53614 18.4653 2.44625 18.3702C1.35611 17.2197 0.533626 15.8619 0.0329274 14.3862C-0.00840261 14.2643 -0.0108806 14.1334 0.0258077 14.0102C0.0624959 13.8869 0.136698 13.7769 0.239009 13.6939L2.34728 11.9859C2.49705 11.8645 2.61735 11.7134 2.69986 11.5431C2.78236 11.3729 2.82509 11.1875 2.82509 11C2.82509 10.8124 2.78236 10.6271 2.69986 10.4568C2.61735 10.2866 2.49705 10.1355 2.34728 10.014L0.239009 8.30601C0.136698 8.22306 0.0624959 8.11299 0.0258077 7.98975C-0.0108806 7.86651 -0.00840261 7.73565 0.0329274 7.61376H0.0315715ZM1.47008 7.60599L3.22448 9.02673C3.52448 9.26967 3.7655 9.572 3.93079 9.91274C4.09609 10.2535 4.18171 10.6245 4.18171 11C4.18171 11.3755 4.09609 11.7465 3.93079 12.0872C3.7655 12.4279 3.52448 12.7303 3.22448 12.9732L1.47008 14.394C1.86597 15.4058 2.43812 16.3478 3.15805 17.1785L5.32191 16.4409C5.69225 16.3148 6.08692 16.267 6.47854 16.3009C6.87017 16.3348 7.24938 16.4496 7.58989 16.6373C7.93039 16.825 8.22404 17.0812 8.45048 17.388C8.67692 17.6948 8.83072 18.045 8.90122 18.4142L9.31474 20.5725C10.4301 20.7499 11.5685 20.7499 12.6839 20.5725L13.0974 18.4116C13.1681 18.0425 13.322 17.6925 13.5485 17.3858C13.775 17.0791 14.0687 16.8231 14.4092 16.6356C14.7497 16.448 15.1288 16.3333 15.5204 16.2995C15.9119 16.2656 16.3065 16.3135 16.6767 16.4397L18.8419 17.1785C19.5632 16.3465 20.1337 15.4054 20.5299 14.394L18.7755 12.9732C18.4751 12.7305 18.2337 12.4283 18.0681 12.0875C17.9026 11.7467 17.8168 11.3756 17.8168 11C17.8168 10.6243 17.9026 10.2532 18.0681 9.91245C18.2337 9.57167 18.4751 9.26942 18.7755 9.02673L20.5299 7.60599C20.1337 6.59455 19.5632 5.65341 18.8419 4.82146L16.6781 5.559C16.3078 5.68517 15.9133 5.733 15.5217 5.69918C15.1302 5.66535 14.751 5.55067 14.4105 5.36308C14.0701 5.1755 13.7764 4.9195 13.5499 4.61283C13.3234 4.30615 13.1694 3.95614 13.0988 3.58705L12.6839 1.42748C11.5685 1.25 10.4301 1.25 9.31474 1.42748L8.90258 3.58705C8.83207 3.95625 8.67827 4.30641 8.45184 4.61323C8.2254 4.92006 7.93175 5.17621 7.59124 5.36393C7.25074 5.55165 6.87152 5.66644 6.4799 5.70035C6.08827 5.73425 5.6936 5.68646 5.32326 5.56029L3.15805 4.82146C2.4368 5.65342 1.86629 6.59456 1.47008 7.60599ZM7.6105 11C7.6105 10.142 7.9676 9.31925 8.60326 8.7126C9.23891 8.10596 10.101 7.76515 11 7.76515C11.8989 7.76515 12.7611 8.10596 13.3967 8.7126C14.0324 9.31925 14.3895 10.142 14.3895 11C14.3895 11.8579 14.0324 12.6807 13.3967 13.2873C12.7611 13.894 11.8989 14.2348 11 14.2348C10.101 14.2348 9.23891 13.894 8.60326 13.2873C7.9676 12.6807 7.6105 11.8579 7.6105 11ZM8.9663 11C8.9663 11.5147 9.18056 12.0084 9.56195 12.3724C9.94335 12.7364 10.4606 12.9409 11 12.9409C11.5394 12.9409 12.0566 12.7364 12.438 12.3724C12.8194 12.0084 13.0337 11.5147 13.0337 11C13.0337 10.4852 12.8194 9.99154 12.438 9.62755C12.0566 9.26356 11.5394 9.05908 11 9.05908C10.4606 9.05908 9.94335 9.26356 9.56195 9.62755C9.18056 9.99154 8.9663 10.4852 8.9663 11Z" fill="white"/>
</svg>
